<svg xmlns="http://www.w3.org/2000/svg" viewBox="0 0 64 64" fill="none">
  <defs>
    <linearGradient id="gold" x1="0%" y1="0%" x2="100%" y2="100%">
      <stop offset="0%" stop-color="#e8c86b" />
      <stop offset="100%" stop-color="#b58d24" />
    </linearGradient>
    <linearGradient id="globeBlue" x1="0%" y1="0%" x2="100%" y2="100%">
      <stop offset="0%" stop-color="#1e3c72" />
      <stop offset="100%" stop-color="#0a192f" />
    </linearGradient>
  </defs>
  
  <!-- Mountains Silhouette in background -->
  <path d="M4 44 L18 31 L28 39 L48 28 L60 44 Z" fill="#4d3222" opacity="0.95" />
  <path d="M12 44 L24 33 L36 41 L52 30 L60 44 Z" fill="#2c1a0e" />

  <!-- Globe Circle -->
  <circle cx="32" cy="32" r="18" fill="url(#globeBlue)" stroke="url(#gold)" stroke-width="1.5" />
  
  <!-- Simplified Continents -->
  <g fill="url(#gold)" opacity="0.8">
    <path d="M22 23 C24 21, 28 23, 28 26 C28 29, 25 31, 22 29 Z" />
    <path d="M24 33 C26 33, 28 36, 27 39 C26 42, 23 42, 22 37 Z" />
    <path d="M36 25 C40 23, 46 25, 44 31 C42 35, 38 37, 36 33 C34 29, 34 26, 36 25 Z" />
    <path d="M40 35 C42 35, 46 37, 44 43 C42 45, 38 43, 40 35 Z" />
  </g>

  <!-- Gold Orbit Swoosh -->
  <path d="M16 38 C16 38, 19 46, 31 42 C43 38, 47 26, 47 26" stroke="url(#gold)" stroke-width="3.5" stroke-linecap="round" />
  <path d="M17 37 C17 37, 21 22, 34 20 C44 18, 50 26, 50 26" stroke="url(#gold)" stroke-width="2.5" stroke-linecap="round" opacity="0.7" />

  <!-- Gold Airplane pointing top-right (rotated ~35 deg) -->
  <g transform="translate(48, 22) rotate(35)">
    <path d="M0 -9 L2 -4 L8 -3 L2 0 L4 5 L0 4 L-4 5 L-2 0 L-8 -3 L-2 -4 Z" fill="url(#gold)" />
  </g>
</svg>
